<svg xmlns="http://www.w3.org/2000/svg" viewBox="0 0 1120 780" font-family="ui-sans-serif, system-ui, sans-serif">
  <defs>
    <marker id="arrow" markerWidth="10" markerHeight="10" refX="8" refY="3" orient="auto" markerUnits="strokeWidth">
      <path d="M0,0 L8,3 L0,6 Z" fill="#8b98a9"/>
    </marker>
    <marker id="arrowR" markerWidth="10" markerHeight="10" refX="8" refY="3" orient="auto" markerUnits="strokeWidth">
      <path d="M0,0 L8,3 L0,6 Z" fill="#ff4d5e"/>
    </marker>
  </defs>

  <rect x="0" y="0" width="1120" height="780" fill="#070a0f"/>
  <text x="40" y="48" fill="#e6edf3" font-size="28" font-weight="700">Sanguine — architecture</text>
  <text x="40" y="74" fill="#8b98a9" font-size="15">Agents make it usable · the engine makes it correct · Aurora DSQL guarantees it</text>

  <!-- ===== Left column: layered request flow ===== -->
  <!-- Browser -->
  <rect x="40" y="100" width="470" height="70" rx="10" fill="#0d121b" stroke="#1e2838"/>
  <text x="60" y="130" fill="#e6edf3" font-size="16" font-weight="600">Browser · Next.js dashboard (Vercel)</text>
  <text x="60" y="152" fill="#8b98a9" font-size="13">bag-state canvas · counters · ledger · polls /api/state ~1s</text>

  <!-- Agent layer -->
  <rect x="40" y="196" width="470" height="70" rx="10" fill="#0d121b" stroke="#a779f0"/>
  <text x="60" y="226" fill="#a779f0" font-size="16" font-weight="600">Intake Agent · Claude Haiku 4.5 on Amazon Bedrock</text>
  <text x="60" y="248" fill="#8b98a9" font-size="13">"need 4 units A- in 72h" → {blood_type, units, deadline}</text>

  <!-- API layer -->
  <rect x="40" y="292" width="470" height="118" rx="10" fill="#0d121b" stroke="#1e2838"/>
  <text x="60" y="320" fill="#e6edf3" font-size="16" font-weight="600">Next.js API routes (Node serverless)</text>
  <text x="60" y="344" fill="#4f8cff" font-size="13" font-family="ui-monospace, monospace">POST /api/allocate   ← the spine (strong consistency)</text>
  <text x="60" y="364" fill="#ff4d5e" font-size="13" font-family="ui-monospace, monospace">POST /api/allocate-naive  ← deliberately wrong</text>
  <text x="60" y="384" fill="#8b98a9" font-size="13" font-family="ui-monospace, monospace">/api/surge /intake /confirm /sweep /state /ledger</text>

  <!-- DSQL -->
  <rect x="40" y="436" width="470" height="92" rx="10" fill="#111826" stroke="#2dd4a7" stroke-width="2"/>
  <text x="60" y="466" fill="#2dd4a7" font-size="18" font-weight="700">Amazon Aurora DSQL — THE HERO</text>
  <text x="60" y="490" fill="#8b98a9" font-size="13">strong consistency · optimistic concurrency control (OCC)</text>
  <text x="60" y="510" fill="#8b98a9" font-size="13">blood_units · requests · allocations(PK unit_id) · custody_events</text>

  <!-- vertical arrows -->
  <line x1="275" y1="170" x2="275" y2="196" stroke="#8b98a9" stroke-width="1.5" marker-end="url(#arrow)"/>
  <line x1="275" y1="266" x2="275" y2="292" stroke="#8b98a9" stroke-width="1.5" marker-end="url(#arrow)"/>
  <line x1="275" y1="410" x2="275" y2="436" stroke="#8b98a9" stroke-width="1.5" marker-end="url(#arrow)"/>

  <!-- ===== Right column: transaction boundary (the money-shot) ===== -->
  <text x="560" y="124" fill="#e6edf3" font-size="17" font-weight="700">The allocation transaction — contention resolved</text>

  <rect x="560" y="140" width="520" height="270" rx="12" fill="#0d121b" stroke="#4f8cff" stroke-dasharray="6 4"/>
  <text x="578" y="166" fill="#4f8cff" font-size="13" font-weight="600" font-family="ui-monospace, monospace">BEGIN — DSQL strong-consistency transaction</text>

  <text x="578" y="196" fill="#8b98a9" font-size="13" font-family="ui-monospace, monospace">1. SELECT FEFO: compatible, available, non-expired</text>
  <text x="578" y="216" fill="#8b98a9" font-size="13" font-family="ui-monospace, monospace">2. UPDATE … SET status='held', version=version+1</text>
  <text x="600" y="234" fill="#8b98a9" font-size="12" font-family="ui-monospace, monospace">WHERE id=? AND version=? AND status='available'</text>
  <text x="578" y="256" fill="#8b98a9" font-size="13" font-family="ui-monospace, monospace">3. INSERT allocations(unit_id PK) ← cannot double</text>
  <text x="578" y="276" fill="#8b98a9" font-size="13" font-family="ui-monospace, monospace">4. INSERT custody_events('held')</text>
  <text x="578" y="300" fill="#4f8cff" font-size="13" font-weight="600" font-family="ui-monospace, monospace">COMMIT</text>

  <!-- conflict path -->
  <line x1="650" y1="312" x2="650" y2="344" stroke="#ff4d5e" stroke-width="1.5" marker-end="url(#arrowR)"/>
  <rect x="578" y="344" width="484" height="50" rx="8" fill="#1a0f13" stroke="#ff4d5e"/>
  <text x="594" y="366" fill="#ff4d5e" font-size="13" font-weight="600">Concurrent commit? → OCC conflict (40001)</text>
  <text x="594" y="384" fill="#8b98a9" font-size="12">retry → contested unit now taken → FEFO reroutes → 'rerouted' event</text>

  <!-- ===== Unit lifecycle state machine ===== -->
  <text x="560" y="452" fill="#e6edf3" font-size="17" font-weight="700">Unit lifecycle state machine</text>

  <!-- states -->
  <g font-size="13" font-weight="600">
    <rect x="560" y="476" width="120" height="46" rx="23" fill="#0d121b" stroke="#2dd4a7"/>
    <text x="620" y="504" fill="#2dd4a7" text-anchor="middle">available</text>

    <rect x="740" y="476" width="120" height="46" rx="23" fill="#0d121b" stroke="#f3b34d"/>
    <text x="800" y="504" fill="#f3b34d" text-anchor="middle">held</text>

    <rect x="920" y="476" width="120" height="46" rx="23" fill="#0d121b" stroke="#4f8cff"/>
    <text x="980" y="504" fill="#4f8cff" text-anchor="middle">allocated</text>

    <rect x="920" y="592" width="120" height="46" rx="23" fill="#0d121b" stroke="#4f8cff"/>
    <text x="980" y="620" fill="#4f8cff" text-anchor="middle">confirmed</text>

    <rect x="560" y="592" width="120" height="46" rx="23" fill="#0d121b" stroke="#4a5568"/>
    <text x="620" y="620" fill="#8b98a9" text-anchor="middle">expired</text>
  </g>

  <!-- transitions -->
  <g font-size="11" fill="#8b98a9">
    <line x1="680" y1="499" x2="738" y2="499" stroke="#8b98a9" stroke-width="1.5" marker-end="url(#arrow)"/>
    <text x="690" y="492">allocate</text>

    <line x1="860" y1="499" x2="918" y2="499" stroke="#8b98a9" stroke-width="1.5" marker-end="url(#arrow)"/>
    <text x="868" y="492">claim</text>

    <line x1="980" y1="522" x2="980" y2="590" stroke="#8b98a9" stroke-width="1.5" marker-end="url(#arrow)"/>
    <text x="988" y="560">confirm</text>

    <!-- held -> available (TTL release) -->
    <path d="M745,524 C700,548 700,500 660,500" fill="none" stroke="#f3b34d" stroke-width="1.5" marker-end="url(#arrow)"/>
    <text x="690" y="544" fill="#f3b34d">hold TTL → released</text>

    <!-- available -> expired -->
    <line x1="620" y1="522" x2="620" y2="590" stroke="#4a5568" stroke-width="1.5" marker-end="url(#arrow)"/>
    <text x="560" y="662" fill="#8b98a9">past shelf life → FEFO refuses</text>
  </g>

  <text x="560" y="690" fill="#8b98a9" font-size="12">Every transition writes an append-only custody_events row — the audit trail is the source of truth.</text>
</svg>
